<?xml version="1.0" ?>
<!-- Uploaded to: SVG Repo, www.svgrepo.com, Generator: SVG Repo Mixer Tools -->
<svg fill="#000000" width="800px" height="800px" viewBox="0 0 400 400" id="Download" version="1.1" xml:space="preserve" xmlns="http://www.w3.org/2000/svg" xmlns:xlink="http://www.w3.org/1999/xlink">
<g id="XMLID_16_">
<rect height="26.7" id="XMLID_17_" width="26.7" x="80" y="186.7"/>
<rect height="26.7" id="XMLID_125_" width="26.7" x="293.3" y="186.7"/>
<rect height="26.7" id="XMLID_144_" width="26.7" x="106.7" y="213.3"/>
<rect height="26.7" id="XMLID_145_" width="26.7" x="266.7" y="213.3"/>
<rect height="26.7" id="XMLID_146_" width="26.7" x="133.3" y="240"/>
<polygon id="XMLID_147_" points="213.3,240 213.3,213.3 213.3,186.7 213.3,160 213.3,133.3 213.3,106.7 213.3,80 213.3,53.3    213.3,26.7 213.3,0 186.7,0 186.7,26.7 186.7,53.3 186.7,80 186.7,106.7 186.7,133.3 186.7,160 186.7,186.7 186.7,213.3 186.7,240    186.7,266.7 213.3,266.7  "/>
<rect height="26.7" id="XMLID_148_" width="26.7" x="240" y="240"/>
<polygon id="XMLID_149_" points="373.3,240 373.3,266.7 373.3,293.3 373.3,320 373.3,346.7 400,346.7 400,320 400,293.3 400,266.7    400,240  "/>
<rect height="26.7" id="XMLID_150_" width="26.7" x="160" y="266.7"/>
<rect height="26.7" id="XMLID_151_" width="26.7" x="213.3" y="266.7"/>
<polygon id="XMLID_152_" points="26.7,293.3 26.7,266.7 26.7,240 0,240 0,266.7 0,293.3 0,320 0,346.7 26.7,346.7 26.7,320  "/>
<rect height="26.7" id="XMLID_153_" width="26.7" x="186.7" y="293.3"/>
<rect height="26.7" id="XMLID_154_" width="26.7" x="26.7" y="346.7"/>
<rect height="26.7" id="XMLID_155_" width="26.7" x="346.7" y="346.7"/>
<polygon id="XMLID_156_" points="293.3,373.3 266.7,373.3 240,373.3 213.3,373.3 186.7,373.3 160,373.3 133.3,373.3 106.7,373.3    80,373.3 53.3,373.3 53.3,400 80,400 106.7,400 133.3,400 160,400 186.7,400 213.3,400 240,400 266.7,400 293.3,400 320,400    346.7,400 346.7,373.3 320,373.3  "/>
</g>
</svg>